<svg width="1650" height="293" viewBox="0 0 1650 293" fill="none" xmlns="http://www.w3.org/2000/svg">
<path d="M1524.34 83.1434C1525.1 83.1916 1525.85 83.2399 1526.62 83.2896C1531.24 83.6476 1535.33 84.4301 1539.7 85.5644C1541.82 86.097 1543.91 86.3982 1546.13 86.6377C1556.83 88.1131 1566.83 92.3159 1576.62 95.697C1576.62 96.1526 1576.62 96.6081 1576.62 97.0775C1578.18 97.3053 1579.75 97.533 1581.36 97.7677C1581.36 98.2233 1581.36 98.6788 1581.36 99.1482C1582.04 99.3332 1582.72 99.5184 1583.43 99.709C1586.09 100.528 1588.45 101.409 1590.83 102.599C1590.83 103.055 1590.83 103.51 1590.83 103.98C1591.51 104.151 1592.2 104.321 1592.9 104.498C1595.83 105.445 1597.94 106.55 1600.3 108.121C1600.3 108.577 1600.3 109.032 1600.3 109.502C1600.93 109.502 1601.55 109.502 1602.2 109.502C1602.2 109.957 1602.2 110.413 1602.2 110.882C1602.8 111.067 1603.41 111.252 1604.03 111.443C1605.99 112.263 1605.99 112.263 1606.93 114.333C1607.87 114.561 1608.81 114.789 1609.78 115.024C1609.78 115.479 1609.78 115.935 1609.78 116.404C1610.4 116.404 1611.03 116.404 1611.67 116.404C1611.67 116.86 1611.67 117.315 1611.67 117.785C1612.61 118.012 1613.55 118.24 1614.51 118.475C1614.51 118.93 1614.51 119.386 1614.51 119.855C1615.14 119.855 1615.76 119.855 1616.41 119.855C1617.77 121.053 1619.07 122.299 1620.31 123.565C1621 124.254 1621.69 124.943 1622.39 125.652C1623.98 127.448 1623.98 127.448 1623.98 128.828C1624.61 128.828 1625.23 128.828 1625.88 128.828C1627.48 130.344 1627.48 130.344 1629.25 132.366C1629.84 133.022 1630.43 133.679 1631.03 134.356C1632.55 136.481 1633.1 138.194 1633.46 140.562C1634.08 140.562 1634.71 140.562 1635.35 140.562C1635.35 141.246 1635.35 141.929 1635.35 142.633C1635.98 142.633 1636.6 142.633 1637.25 142.633C1637.56 144.227 1637.87 145.822 1638.19 147.465C1638.82 147.465 1639.44 147.465 1640.09 147.465C1640.33 148.056 1640.57 148.648 1640.82 149.258C1642.77 154.106 1642.77 154.106 1645.42 158.767C1647.22 162.237 1647.64 165.727 1648.21 169.393C1648.43 171.542 1648.43 171.542 1649.56 173.003C1649.65 175.101 1649.69 177.182 1649.69 179.28C1649.69 180.214 1649.69 180.214 1649.69 181.168C1649.69 182.486 1649.69 183.804 1649.68 185.122C1649.68 187.145 1649.68 189.167 1649.69 191.189C1649.69 192.468 1649.69 193.747 1649.69 195.026C1649.69 195.634 1649.69 196.241 1649.69 196.867C1649.67 201.144 1649.67 201.144 1648.61 202.683C1648.31 204.335 1648.04 205.989 1647.78 207.644C1647.15 211.421 1646.13 214.446 1643.88 217.869C1643.13 219.924 1642.53 221.994 1641.98 224.081C1641.36 224.081 1640.73 224.081 1640.09 224.081C1640.09 225.22 1640.09 226.358 1640.09 227.532C1639.46 227.532 1638.84 227.532 1638.19 227.532C1637.88 229.126 1637.57 230.721 1637.25 232.363C1636.62 232.363 1636 232.363 1635.35 232.363C1635.23 232.734 1635.12 233.104 1635 233.485C1634.29 235.445 1633.41 237.348 1632.51 239.266C1631.88 239.266 1631.26 239.266 1630.61 239.266C1630.61 239.949 1630.61 240.632 1630.61 241.336C1629.99 241.336 1629.36 241.336 1628.72 241.336C1628.41 242.475 1628.1 243.614 1627.77 244.788C1627.15 244.788 1626.52 244.788 1625.88 244.788C1625.59 245.329 1625.29 245.87 1624.99 246.427C1623.98 248.239 1623.98 248.239 1623.04 249.619C1622.41 249.619 1621.79 249.619 1621.14 249.619C1620.89 250.146 1620.63 250.673 1620.37 251.215C1619.29 252.994 1618.48 253.947 1616.41 255.141C1615.78 255.141 1615.16 255.141 1614.51 255.141C1614.42 255.718 1614.42 255.718 1614.33 256.306C1612.54 260.019 1606.53 263.18 1602.2 265.495C1601.57 265.495 1600.95 265.495 1600.3 265.495C1600.3 265.95 1600.3 266.406 1600.3 266.875C1597.02 268.946 1597.02 268.946 1594.62 268.946C1594.62 269.401 1594.62 269.857 1594.62 270.326C1590.47 272.397 1590.47 272.397 1587.99 272.397C1587.99 272.853 1587.99 273.308 1587.99 273.778C1587.05 273.778 1586.11 273.778 1585.15 273.778C1585.15 274.233 1585.15 274.689 1585.15 275.158C1579.82 277.229 1579.82 277.229 1576.62 277.229C1576.62 277.684 1576.62 278.14 1576.62 278.609C1570.4 280.943 1564.28 283.133 1557.68 284.821C1556.85 285.092 1556.03 285.362 1555.19 285.641C1552.46 286.322 1550.12 286.299 1547.26 286.202C1547.26 286.657 1547.26 287.113 1547.26 287.582C1546.18 287.682 1545.11 287.781 1544 287.884C1540.81 288.004 1540.81 288.004 1539.68 288.963C1537.33 289.221 1534.99 289.45 1532.63 289.653C1527.96 289.959 1527.96 289.959 1523.57 291.033C1512.93 292.121 1493.65 293.937 1483.79 290.343C1482.15 290.197 1480.5 290.055 1478.86 289.932C1470.99 289.341 1463.8 288.137 1456.32 286.202C1455.26 285.933 1455.26 285.933 1454.17 285.66C1445.42 283.361 1437.13 280.294 1428.85 277.229C1428.85 276.773 1428.85 276.318 1428.85 275.848C1427.28 275.62 1425.72 275.393 1424.11 275.158C1424.11 274.702 1424.11 274.247 1424.11 273.778C1423.37 273.564 1422.63 273.35 1421.86 273.13C1419.37 272.397 1419.37 272.397 1417.48 271.707C1417.48 271.251 1417.48 270.796 1417.48 270.326C1416.72 270.141 1415.96 269.956 1415.17 269.766C1414.37 269.495 1413.57 269.225 1412.74 268.946C1412.27 267.921 1412.27 267.921 1411.8 266.875C1411.13 266.69 1410.47 266.505 1409.78 266.314C1403.67 264.475 1398.52 260.426 1394.75 256.522C1394.75 256.066 1394.75 255.611 1394.75 255.141C1394.12 255.141 1393.5 255.141 1392.85 255.141C1392.85 254.458 1392.85 253.775 1392.85 253.07C1392.23 253.07 1391.6 253.07 1390.96 253.07C1390.96 252.615 1390.96 252.159 1390.96 251.69C1390.02 251.462 1389.08 251.234 1388.11 251C1386.99 249.231 1386.99 249.231 1386.22 247.549C1385.6 247.549 1384.97 247.549 1384.33 247.549C1383.86 246.182 1383.86 246.182 1383.38 244.788C1382.75 244.788 1382.13 244.788 1381.48 244.788C1381.48 244.104 1381.48 243.421 1381.48 242.717C1380.86 242.717 1380.23 242.717 1379.59 242.717C1379.28 241.578 1378.96 240.439 1378.64 239.266C1378.02 239.266 1377.39 239.266 1376.75 239.266C1373.91 234.693 1373.91 234.693 1373.91 232.363C1373.28 232.363 1372.66 232.363 1372.01 232.363C1371.1 230.609 1370.19 228.855 1369.29 227.1C1369.03 226.608 1368.78 226.116 1368.51 225.609C1366.16 221.056 1364.11 216.506 1362.48 211.786C1362.32 211.33 1362.15 210.874 1361.98 210.404C1359.58 203.467 1359.55 196.58 1359.57 189.474C1359.58 187.847 1359.57 186.221 1359.57 184.594C1359.56 175.75 1360.51 167.612 1364.43 159.199C1364.87 157.977 1365.31 156.755 1365.74 155.532C1366.87 152.444 1368.34 149.632 1370.24 146.756C1371.06 145.393 1371.57 144.085 1372.01 142.633C1372.64 142.633 1373.26 142.633 1373.91 142.633C1374.02 142.007 1374.14 141.38 1374.26 140.735C1374.78 138.775 1375.4 137.438 1376.75 135.731C1377.37 135.731 1378 135.731 1378.64 135.731C1378.76 135.204 1378.88 134.677 1379 134.134C1379.59 132.279 1379.59 132.279 1381.48 130.209C1382.11 130.209 1382.73 130.209 1383.38 130.209C1383.5 129.682 1383.61 129.155 1383.73 128.613C1384.33 126.758 1384.33 126.758 1386.22 124.687C1386.85 124.687 1387.47 124.687 1388.11 124.687C1388.43 123.776 1388.74 122.865 1389.06 121.926C1389.69 121.926 1390.31 121.926 1390.96 121.926C1391.25 121.499 1391.54 121.072 1391.84 120.632C1392.5 119.683 1393.15 118.734 1393.8 117.785C1394.42 117.785 1395.05 117.785 1395.69 117.785C1395.69 117.329 1395.69 116.873 1395.69 116.404C1396.32 116.404 1396.94 116.404 1397.59 116.404C1397.9 115.721 1398.21 115.037 1398.53 114.333C1399.16 114.333 1399.79 114.333 1400.43 114.333C1400.43 113.878 1400.43 113.422 1400.43 112.953C1401.05 112.953 1401.68 112.953 1402.32 112.953C1402.64 112.27 1402.95 111.586 1403.27 110.882C1403.9 110.882 1404.52 110.882 1405.17 110.882C1405.17 110.427 1405.17 109.971 1405.17 109.502C1407.15 108.262 1409.12 107.106 1411.2 105.964C1411.78 105.641 1412.35 105.318 1412.94 104.986C1417.23 102.599 1417.23 102.599 1419.37 102.599C1419.37 102.144 1419.37 101.688 1419.37 101.219C1420.94 100.991 1422.5 100.763 1424.11 100.529C1424.11 100.073 1424.11 99.6176 1424.11 99.1482C1426.26 98.2224 1428.41 97.3031 1430.56 96.3873C1431.17 96.1239 1431.78 95.8605 1432.41 95.5891C1437.05 93.6263 1437.05 93.6263 1440.21 93.6263C1440.21 93.1708 1440.21 92.7152 1440.21 92.2458C1440.89 92.0706 1441.57 91.8953 1442.26 91.7147C1446.23 90.6765 1450.15 89.6399 1454.01 88.4064C1460.33 86.4806 1466.59 85.2837 1473.37 84.6533C1473.68 84.4255 1473.99 84.1977 1474.32 83.963C1490.92 82.2127 1507.65 82.0221 1524.34 83.1434ZM1469.58 148.155C1469.58 148.61 1469.58 149.066 1469.58 149.535C1468.94 149.678 1468.29 149.82 1467.63 149.967C1463.98 151.212 1460.9 152.857 1458.21 155.057C1457.87 155.973 1457.55 156.893 1457.27 157.818C1456.02 158.301 1454.75 158.762 1453.48 159.199C1453.16 159.882 1452.85 160.565 1452.53 161.269C1451.9 161.497 1451.28 161.725 1450.63 161.96C1450.63 162.871 1450.63 163.782 1450.63 164.72C1450.01 164.72 1449.38 164.72 1448.74 164.72C1440.34 177.054 1440.43 191.057 1445.9 204.064C1446.52 204.064 1447.15 204.064 1447.79 204.064C1447.81 204.704 1447.83 205.345 1447.85 206.005C1448.59 209.968 1452.05 213.399 1455.37 216.488C1456 216.488 1456.62 216.488 1457.27 216.488C1457.58 217.171 1457.89 217.855 1458.21 218.559C1458.84 218.559 1459.46 218.559 1460.11 218.559C1460.11 219.014 1460.11 219.47 1460.11 219.939C1460.73 219.939 1461.36 219.939 1462 219.939C1462.31 220.623 1462.63 221.306 1462.95 222.01C1467.82 225.004 1473.1 227.257 1479.05 228.912C1481.14 229.627 1483.22 230.346 1485.3 231.075C1496.79 234.093 1514.22 233.514 1525.47 230.293C1526.23 230.095 1526.98 229.898 1527.77 229.694C1529.54 229.226 1531.29 228.728 1533.05 228.222C1533.05 227.766 1533.05 227.311 1533.05 226.842C1533.59 226.756 1534.14 226.671 1534.7 226.583C1536.86 226.147 1538.66 225.538 1540.62 224.771C1540.62 224.315 1540.62 223.86 1540.62 223.39C1541.17 223.22 1541.71 223.049 1542.27 222.873C1544.75 221.877 1546.45 220.711 1548.44 219.249C1549.11 218.765 1549.78 218.281 1550.47 217.782C1552.2 216.598 1552.2 216.598 1551.99 215.108C1552.62 215.108 1553.24 215.108 1553.89 215.108C1564.81 205.428 1567.44 193.453 1566.2 181.286C1565.06 174.048 1561.57 168.238 1556.73 161.96C1555.98 160.968 1555.98 160.968 1555.22 159.956C1554.56 159.24 1554.56 159.24 1553.89 158.508C1553.26 158.508 1552.64 158.508 1551.99 158.508C1551.76 158.081 1551.52 157.654 1551.28 157.214C1549.9 155.505 1548.79 155.091 1546.31 154.367C1546.31 153.911 1546.31 153.456 1546.31 152.986C1545.68 152.986 1545.06 152.986 1544.41 152.986C1544.41 152.531 1544.41 152.075 1544.41 151.606C1541.36 150.007 1541.36 150.007 1537.78 149.535C1537.78 149.08 1537.78 148.624 1537.78 148.155C1535.91 147.927 1534.03 147.699 1532.1 147.465C1532.1 147.009 1532.1 146.553 1532.1 146.084C1530.85 146.084 1529.6 146.084 1528.31 146.084C1528.31 145.629 1528.31 145.173 1528.31 144.704C1527.64 144.612 1526.96 144.52 1526.27 144.426C1525.4 144.304 1524.53 144.182 1523.63 144.057C1522.76 143.936 1521.9 143.816 1521 143.693C1518.84 143.323 1518.84 143.323 1517.89 142.633C1513.16 142.01 1508.53 141.832 1503.74 141.856C1502.74 141.86 1502.74 141.86 1501.72 141.864C1489.51 141.952 1480.53 144.341 1469.58 148.155Z" fill="#F9F8FD"/>
<path d="M527.05 92.2459C527.05 92.7014 527.05 93.157 527.05 93.6263C528.066 93.6691 529.082 93.7117 530.129 93.7558C535.801 94.2464 540.836 96.0696 545.996 97.7678C545.996 98.2233 545.996 98.6789 545.996 99.1482C546.933 99.1482 547.871 99.1482 548.837 99.1482C548.837 99.6038 548.837 100.059 548.837 100.529C550.4 100.756 551.963 100.984 553.574 101.219C553.574 101.674 553.574 102.13 553.574 102.599C554.336 102.685 554.336 102.685 555.113 102.772C558.19 103.48 560.477 104.646 563.046 106.051C563.046 106.506 563.046 106.962 563.046 107.431C563.574 107.602 564.101 107.773 564.645 107.949C569.781 109.972 573.868 112.961 577.255 116.404C577.255 116.86 577.255 117.315 577.255 117.785C577.881 117.785 578.506 117.785 579.15 117.785C581.992 120.174 581.992 120.174 581.992 121.926C582.617 121.926 583.242 121.926 583.886 121.926C585.488 123.441 585.488 123.441 587.261 125.463C587.848 126.12 588.436 126.777 589.041 127.453C590.56 129.579 591.112 131.291 591.464 133.66C592.09 133.66 592.715 133.66 593.359 133.66C593.599 134.21 593.84 134.76 594.088 135.326C596.008 139.765 596.008 139.765 598.687 143.97C600.508 146.926 600.906 149.907 601.477 153.105C601.735 155.017 601.735 155.017 602.832 156.438C603.03 158.338 603.187 160.229 603.305 162.132C603.371 163.171 603.44 164.21 603.512 165.249C603.541 165.71 603.57 166.171 603.599 166.646C603.752 168.237 603.752 168.237 604.255 170.046C604.743 172.395 604.854 174.612 604.866 176.988C604.869 177.441 604.872 177.894 604.876 178.361C604.887 179.869 604.89 181.377 604.894 182.886C604.9 183.971 604.906 185.057 604.913 186.142C604.933 189.697 604.942 193.253 604.952 196.808C604.956 198.035 604.96 199.262 604.964 200.489C604.982 206.251 604.995 212.014 605.003 217.777C605.012 224.419 605.037 231.061 605.075 237.703C605.104 242.845 605.118 247.986 605.121 253.128C605.123 256.195 605.132 259.263 605.156 262.33C605.178 265.217 605.182 268.103 605.172 270.99C605.172 272.046 605.178 273.102 605.191 274.158C605.323 285.529 605.323 285.529 600.937 289.653C597.421 291.256 594.48 291.212 590.358 291.223C589.343 291.228 589.343 291.228 588.308 291.234C586.075 291.243 583.843 291.243 581.611 291.241C580.056 291.244 578.501 291.247 576.946 291.25C573.688 291.255 570.431 291.255 567.173 291.251C563.003 291.247 558.832 291.259 554.662 291.275C551.451 291.285 548.24 291.286 545.03 291.284C543.492 291.284 541.955 291.288 540.417 291.294C538.265 291.303 536.114 291.298 533.963 291.29C532.739 291.291 531.516 291.291 530.256 291.292C526.725 291.007 525.039 290.611 522.314 288.963C519.892 285.998 519.117 283.817 519.114 280.384C519.106 279.504 519.098 278.625 519.09 277.719C519.096 276.753 519.102 275.787 519.108 274.821C519.104 273.797 519.099 272.773 519.092 271.748C519.081 269.546 519.079 267.344 519.083 265.142C519.09 261.651 519.075 258.16 519.056 254.669C519.02 247.248 519.008 239.827 518.999 232.407C518.988 224.415 518.973 216.424 518.932 208.433C518.914 204.972 518.911 201.512 518.917 198.051C518.919 195.883 518.909 193.715 518.895 191.547C518.891 190.553 518.892 189.559 518.899 188.565C518.949 180.095 518.455 171.284 511.894 164.03C511.894 163.347 511.894 162.664 511.894 161.96C511.269 161.96 510.644 161.96 510 161.96C509.035 160.817 508.088 159.666 507.158 158.508C506.533 158.281 505.907 158.053 505.263 157.818C505.263 157.363 505.263 156.907 505.263 156.438C504.638 156.438 504.013 156.438 503.369 156.438C502.086 155.532 500.823 154.611 499.58 153.677C498.954 153.449 498.329 153.221 497.685 152.987C497.685 152.531 497.685 152.075 497.685 151.606C496.845 151.535 496.005 151.464 495.139 151.39C492.002 150.916 492.002 150.916 489.833 149.905C480.071 145.876 463.764 146.903 453.13 148.619C449.974 149.351 447.396 150.266 444.638 151.606C443.7 151.606 442.763 151.606 441.796 151.606C441.796 152.062 441.796 152.517 441.796 152.987C437.643 155.057 437.643 155.057 435.166 155.057C434.912 155.499 434.658 155.94 434.396 156.395C433.271 157.818 433.271 157.818 430.429 158.508C429.735 159.899 429.735 159.899 429.482 161.269C428.857 161.269 428.232 161.269 427.587 161.269C427.334 161.753 427.08 162.237 426.818 162.736C425.628 164.834 424.27 166.841 422.851 168.862C422.226 168.862 421.601 168.862 420.957 168.862C420.899 169.344 420.842 169.826 420.783 170.323C420.664 171.265 420.664 171.265 420.542 172.227C420.427 173.164 420.427 173.164 420.309 174.12C420.009 175.764 420.009 175.764 419.062 177.145C418.968 178.502 418.936 179.862 418.931 181.221C418.926 182.09 418.921 182.959 418.916 183.854C418.915 184.823 418.914 185.791 418.913 186.759C418.908 187.775 418.903 188.791 418.898 189.807C418.887 191.999 418.879 194.19 418.873 196.382C418.863 199.852 418.844 203.321 418.823 206.791C418.764 216.659 418.713 226.527 418.682 236.395C418.664 241.843 418.637 247.29 418.598 252.737C418.579 255.618 418.564 258.499 418.562 261.38C418.56 264.095 418.545 266.81 418.52 269.525C418.513 270.517 418.511 271.509 418.514 272.501C418.529 277.979 418.412 283.199 415.273 288.272C414.648 288.728 414.023 289.184 413.378 289.653C412.128 289.653 410.878 289.653 409.589 289.653C409.589 290.108 409.589 290.564 409.589 291.033C400.671 291.081 391.754 291.118 382.836 291.141C378.694 291.151 374.553 291.166 370.412 291.19C366.414 291.212 362.415 291.225 358.417 291.23C356.893 291.234 355.37 291.241 353.846 291.252C351.708 291.267 349.57 291.269 347.432 291.268C346.216 291.273 345 291.278 343.748 291.282C340.163 291.013 337.849 290.276 334.755 288.963C334.755 288.507 334.755 288.052 334.755 287.582C334.13 287.582 333.505 287.582 332.861 287.582C332.051 282.995 331.779 278.527 331.793 273.904C331.792 273.176 331.79 272.448 331.789 271.698C331.785 269.271 331.788 266.843 331.791 264.416C331.79 262.671 331.788 260.926 331.786 259.18C331.782 254.94 331.783 250.699 331.785 246.458C331.788 243.01 331.788 239.562 331.787 236.114C331.787 235.622 331.787 235.131 331.786 234.624C331.786 233.625 331.786 232.627 331.785 231.628C331.783 222.272 331.786 212.916 331.791 203.56C331.795 195.541 331.794 187.521 331.79 179.501C331.785 170.178 331.783 160.854 331.786 151.531C331.786 150.536 331.787 149.541 331.787 148.546C331.787 148.056 331.787 147.567 331.787 147.062C331.788 143.62 331.787 140.178 331.785 136.736C331.782 132.1 331.784 127.463 331.789 122.827C331.79 121.126 331.79 119.426 331.788 117.726C331.785 115.402 331.789 113.079 331.793 110.755C331.791 110.085 331.789 109.414 331.787 108.723C331.828 98.2671 331.828 98.2671 334.696 94.9637C336.65 93.6263 336.65 93.6263 338.545 93.6263C338.545 93.1708 338.545 92.7152 338.545 92.2459C342.652 91.1091 346.05 90.6913 350.435 90.6868C351.649 90.6824 352.863 90.6781 354.114 90.6736C355.427 90.6761 356.739 90.6789 358.052 90.6821C359.411 90.6811 360.77 90.6798 362.128 90.6781C364.969 90.676 367.81 90.679 370.651 90.6855C374.282 90.6933 377.913 90.6888 381.544 90.6805C384.348 90.6755 387.151 90.6771 389.955 90.6807C391.293 90.6816 392.632 90.6805 393.97 90.6773C395.845 90.6737 397.719 90.6801 399.593 90.6868C400.657 90.6879 401.721 90.689 402.818 90.6901C405.969 90.8753 408.538 91.4306 411.484 92.2459C411.484 92.7014 411.484 93.157 411.484 93.6263C412.392 93.904 412.392 93.904 413.319 94.1872C415.273 95.0068 415.273 95.0068 416.22 97.0775C416.364 98.6531 416.456 100.231 416.52 101.809C416.54 102.266 416.559 102.723 416.58 103.193C416.641 104.649 416.697 106.105 416.753 107.56C416.794 108.549 416.835 109.537 416.877 110.525C416.978 112.945 417.074 115.365 417.168 117.785C418.105 117.785 419.043 117.785 420.009 117.785C420.079 117.411 420.149 117.037 420.22 116.652C421.249 114.376 423.072 112.896 425.16 111.055C426.301 110.035 426.301 110.035 427.465 108.995C428.131 108.479 428.796 107.963 429.482 107.431C430.107 107.431 430.732 107.431 431.377 107.431C431.377 106.975 431.377 106.52 431.377 106.051C434.655 103.98 434.655 103.98 437.06 103.98C437.06 103.524 437.06 103.069 437.06 102.599C439.487 101.014 440.356 100.529 443.691 100.529C443.691 100.073 443.691 99.6176 443.691 99.1482C449.019 97.0775 449.019 97.0775 452.216 97.0775C452.216 96.622 452.216 96.1664 452.216 95.6971C453.332 95.4341 453.332 95.4341 454.47 95.1659C460.709 93.6986 460.709 93.6986 466.721 91.8145C484.346 87.0258 509.284 88.3109 527.05 92.2459Z" fill="#28868A"/>
<path d="M25.9799 2.17292C27.3513 2.17278 28.7226 2.17182 30.094 2.16988C32.9547 2.16892 35.8151 2.17755 38.6757 2.19328C42.3247 2.21289 45.9729 2.21102 49.6219 2.20226C52.4493 2.19742 55.2765 2.20281 58.1039 2.21137C59.4486 2.21447 60.7933 2.21475 62.1382 2.21199C75.6401 2.19749 75.6401 2.19749 81.8352 4.58605C88.1618 9.58783 86.8427 18.4152 86.7995 24.7753C86.8011 25.6589 86.8027 26.5426 86.8043 27.453C86.8086 29.8818 86.8011 32.3106 86.7915 34.7394C86.7833 37.3675 86.7861 39.9956 86.7875 42.6238C86.7885 47.1693 86.7826 51.7148 86.7719 56.2602C86.7565 62.8321 86.7515 69.404 86.7492 75.9759C86.7451 86.6401 86.7325 97.3043 86.7145 107.969C86.6971 118.324 86.6837 128.679 86.6757 139.034C86.6752 139.673 86.6747 140.312 86.6741 140.97C86.6717 144.176 86.6693 147.382 86.6669 150.588C86.6473 177.156 86.614 203.725 86.5716 230.293C88.2469 230.309 88.2469 230.309 89.9561 230.327C100.48 230.433 111.003 230.555 121.526 230.69C126.936 230.759 132.346 230.823 137.757 230.875C142.978 230.926 148.198 230.99 153.419 231.063C155.411 231.089 157.403 231.11 159.395 231.126C162.185 231.149 164.974 231.189 167.763 231.233C169 231.237 169 231.237 170.262 231.242C175.117 231.34 177.796 231.747 181.298 234.434C183.33 237.101 183.432 239.45 183.438 242.468C183.443 243.137 183.443 243.137 183.448 243.819C183.456 245.285 183.451 246.751 183.444 248.217C183.446 249.241 183.447 250.265 183.45 251.288C183.453 253.43 183.449 255.572 183.44 257.714C183.429 260.455 183.435 263.196 183.446 265.937C183.453 268.05 183.451 270.163 183.446 272.276C183.445 273.286 183.447 274.297 183.451 275.307C183.456 276.721 183.448 278.135 183.438 279.549C183.436 280.352 183.435 281.156 183.433 281.984C183.194 284.124 182.549 285.651 181.298 287.582C180.673 287.582 180.048 287.582 179.404 287.582C179.091 288.265 178.778 288.949 178.456 289.653C174.652 291.19 171.183 291.208 166.895 291.213C166.218 291.216 165.541 291.219 164.844 291.221C162.581 291.228 160.318 291.226 158.055 291.223C156.431 291.226 154.806 291.229 153.181 291.234C148.772 291.243 144.362 291.243 139.953 291.242C136.271 291.241 132.589 291.244 128.908 291.247C120.222 291.255 111.536 291.255 102.85 291.251C93.89 291.247 84.9306 291.256 75.971 291.27C68.2768 291.282 60.5828 291.287 52.8887 291.284C48.2941 291.283 43.6996 291.285 39.1049 291.294C34.7843 291.303 30.4638 291.302 26.1431 291.293C24.5583 291.291 22.9737 291.293 21.389 291.299C19.2235 291.306 17.0588 291.3 14.8935 291.292C13.0769 291.292 13.0769 291.292 11.2236 291.292C7.55938 291.003 5.32402 290.458 2.26492 288.963C0.277844 286.216 0.132344 283.847 0.129407 280.774C0.126376 280.303 0.123346 279.833 0.12022 279.349C0.112263 277.77 0.117945 276.191 0.123439 274.612C0.120598 273.47 0.116904 272.327 0.112546 271.185C0.102695 268.044 0.104873 264.903 0.108852 261.761C0.11122 258.375 0.102694 254.988 0.0955899 251.601C0.0834649 244.965 0.0818551 238.33 0.0840338 231.694C0.0857389 226.302 0.0840338 220.91 0.0800553 215.518C0.079487 214.752 0.0789181 213.985 0.0783497 213.195C0.077213 211.638 0.0759813 210.08 0.0748446 208.523C0.0645194 193.911 0.0666037 179.298 0.072382 164.686C0.0773078 151.31 0.066603 137.933 0.0486049 124.556C0.0303227 110.83 0.0224613 97.1027 0.0259662 83.3758C0.0278607 75.6659 0.0253979 67.9561 0.0120414 60.2461C0.000768967 53.6835 -0.000556942 47.1208 0.010905 40.5582C0.0164938 37.2083 0.0175348 33.8585 0.00616763 30.5087C-0.00406284 27.4441 -0.00122107 24.3797 0.0121354 21.3151C0.0145983 20.2045 0.0123256 19.0939 0.00474751 17.9834C-0.00472514 16.4771 0.00313634 14.9714 0.0154508 13.4651C0.0153561 12.2087 0.0153558 12.2087 0.0152611 10.9269C0.405156 8.51252 1.25012 7.2204 3.21219 5.27628C9.71109 1.59906 18.1913 2.12302 25.9799 2.17292Z" fill="#28868A"/>
<path d="M1348.53 68.0487C1349.71 68.0394 1350.89 68.03 1352.1 68.0204C1353.1 68.0087 1354.1 67.9971 1355.14 67.9851C1359.02 68.1344 1361.89 68.939 1365.38 70.1584C1365.38 70.6139 1365.38 71.0695 1365.38 71.5388C1366.01 71.5388 1366.63 71.5388 1367.27 71.5388C1368.32 73.9995 1368.34 76.289 1368.34 78.8561C1368.35 79.5333 1368.35 79.5333 1368.35 80.2243C1368.35 81.7132 1368.35 83.2022 1368.35 84.6911C1368.35 85.7295 1368.35 86.7679 1368.35 87.8064C1368.35 89.9822 1368.35 92.1579 1368.35 94.3338C1368.34 97.1157 1368.34 99.8976 1368.35 102.68C1368.35 104.824 1368.35 106.969 1368.35 109.114C1368.35 110.139 1368.35 111.165 1368.35 112.19C1368.35 113.627 1368.35 115.064 1368.34 116.501C1368.34 117.317 1368.34 118.133 1368.34 118.974C1368.23 121.166 1367.84 123.225 1367.27 125.377C1366.65 125.377 1366.02 125.377 1365.38 125.377C1365.07 126.06 1364.76 126.744 1364.43 127.448C1360.84 128.864 1357.66 129.01 1353.62 129.037C1352.42 129.049 1351.21 129.06 1349.97 129.072C1348.66 129.078 1347.35 129.084 1346.04 129.09C1344.69 129.101 1343.34 129.113 1342 129.125C1338.46 129.157 1334.92 129.181 1331.38 129.203C1325.7 129.239 1320.03 129.284 1314.36 129.333C1312.37 129.348 1310.39 129.36 1308.41 129.37C1306.61 129.384 1306.61 129.384 1304.78 129.399C1303.72 129.405 1302.66 129.412 1301.57 129.419C1299.09 129.397 1299.09 129.397 1297.18 130.209C1293.22 147.909 1295.15 167.185 1295.22 185.101C1295.23 188.087 1295.23 191.073 1295.23 194.058C1295.24 201.607 1295.26 209.155 1295.28 216.704C1295.3 224.874 1295.32 233.044 1295.33 241.214C1295.34 244.164 1295.34 247.113 1295.35 250.063C1295.39 260.634 1295.42 271.207 1294.98 281.775C1294.96 282.485 1294.94 283.194 1294.92 283.925C1294.89 284.567 1294.85 285.208 1294.82 285.869C1294.79 286.421 1294.77 286.973 1294.74 287.542C1294.23 289.319 1293.45 289.932 1291.49 291.033C1288.2 291.834 1285.62 291.811 1282.14 291.813C1281.16 291.815 1281.16 291.815 1280.15 291.817C1277.97 291.82 1275.8 291.818 1273.62 291.815C1272.11 291.816 1270.59 291.816 1269.08 291.817C1265.91 291.818 1262.73 291.817 1259.56 291.814C1255.49 291.81 1251.43 291.812 1247.37 291.816C1244.24 291.819 1241.11 291.818 1237.99 291.816C1236.49 291.815 1234.99 291.816 1233.49 291.818C1231.4 291.819 1229.3 291.817 1227.2 291.813C1225.41 291.812 1225.41 291.812 1223.59 291.811C1220.84 291.734 1218.38 291.499 1215.71 291.033C1215.71 290.578 1215.71 290.122 1215.71 289.653C1214.77 289.425 1213.84 289.197 1212.87 288.963C1212.87 288.145 1212.86 287.328 1212.86 286.485C1212.76 267.098 1212.66 247.712 1212.56 228.325C1212.54 225.941 1212.53 223.557 1212.52 221.174C1212.52 220.699 1212.51 220.224 1212.51 219.735C1212.47 212.041 1212.43 204.346 1212.39 196.652C1212.35 188.763 1212.31 180.873 1212.27 172.984C1212.24 168.55 1212.22 164.116 1212.2 159.682C1212.18 155.514 1212.16 151.346 1212.13 147.178C1212.12 145.644 1212.11 144.109 1212.11 142.575C1212.1 140.489 1212.09 138.404 1212.07 136.319C1212.07 135.703 1212.07 135.087 1212.07 134.453C1212.41 131.77 1212.41 131.77 1210.98 129.519C1208.97 129.444 1206.96 129.418 1204.96 129.41C1204.33 129.406 1203.7 129.403 1203.05 129.399C1201.68 129.392 1200.31 129.386 1198.94 129.381C1196.77 129.373 1194.6 129.359 1192.43 129.344C1186.26 129.302 1180.09 129.265 1173.92 129.241C1170.14 129.227 1166.37 129.203 1162.6 129.172C1161.16 129.162 1159.73 129.156 1158.29 129.154C1156.28 129.151 1154.26 129.135 1152.24 129.116C1151.1 129.11 1149.95 129.105 1148.77 129.099C1145.21 128.793 1142.95 128.167 1139.93 126.758C1137.46 124.446 1137.79 121.957 1137.78 119.113C1137.77 118.626 1137.77 118.14 1137.76 117.639C1137.75 116.035 1137.75 114.43 1137.75 112.826C1137.75 111.709 1137.74 110.591 1137.74 109.474C1137.73 107.133 1137.73 104.791 1137.74 102.45C1137.74 99.453 1137.73 96.4561 1137.7 93.4589C1137.69 91.1513 1137.69 88.8438 1137.69 86.5362C1137.69 85.4313 1137.69 84.3264 1137.68 83.2215C1137.67 81.6751 1137.67 80.1293 1137.68 78.5829C1137.68 77.2642 1137.68 77.2642 1137.68 75.9189C1138.08 73.3481 1138.53 72.101 1140.88 70.1584C1145.9 68.8299 1150.39 68.5761 1155.7 68.5857C1156.5 68.5817 1157.3 68.5777 1158.12 68.5736C1160.8 68.5619 1163.47 68.5599 1166.14 68.5578C1168.06 68.5514 1169.98 68.5444 1171.9 68.5368C1177.11 68.518 1182.32 68.5075 1187.53 68.4986C1192.99 68.4877 1198.46 68.4692 1203.92 68.4516C1214.28 68.4193 1224.63 68.3939 1234.99 68.3711C1246.73 68.3448 1258.47 68.3106 1270.2 68.2758C1288.49 68.2219 1306.77 68.1722 1325.05 68.1291C1325.96 68.127 1326.87 68.1247 1327.8 68.1225C1328.68 68.1204 1329.56 68.1183 1330.46 68.1161C1331.31 68.114 1332.16 68.112 1333.03 68.1099C1334.65 68.1064 1336.28 68.1036 1337.9 68.1017C1341.45 68.0973 1344.99 68.0861 1348.53 68.0487Z" fill="#258283"/>
<path d="M835.622 88.6356C837.082 88.6364 838.542 88.6367 840.002 88.6366C843.063 88.6376 846.123 88.6433 849.184 88.6527C853.032 88.6642 856.879 88.667 860.727 88.6666C874.681 88.6668 888.634 88.7095 902.581 89.0616C903.528 89.0824 904.476 89.1032 905.451 89.1246C910.02 89.2619 914.028 89.4872 918.271 90.8654C919.218 92.0733 919.218 92.0733 919.218 93.6264C918.33 95.8696 918.33 95.8696 917.323 97.7678C916.698 97.7678 916.073 97.7678 915.429 97.7678C915.429 98.2233 915.429 98.6789 915.429 99.1482C914.126 100.27 914.126 100.27 912.587 101.219C911.962 101.219 911.337 101.219 910.692 101.219C910.438 101.618 910.184 102.016 909.923 102.427C908.77 104.018 907.563 105.374 905.956 106.741C905.331 106.741 904.706 106.741 904.062 106.741C903.808 107.182 903.554 107.623 903.292 108.078C902.167 109.502 902.167 109.502 899.325 110.192C898.631 111.583 898.631 111.583 898.378 112.953C897.128 113.181 895.877 113.408 894.589 113.643C894.53 114.027 894.472 114.412 894.411 114.808C893.312 117.088 891.301 118.186 888.905 119.855C887.163 121.321 885.447 122.801 883.743 124.29C883.259 124.649 882.774 125.008 882.274 125.377C881.649 125.377 881.024 125.377 880.38 125.377C880.067 126.06 879.755 126.744 879.433 127.448C878.807 127.448 878.182 127.448 877.538 127.448C877.538 127.903 877.538 128.359 877.538 128.828C876.913 128.828 876.288 128.828 875.644 128.828C875.331 129.512 875.018 130.195 874.696 130.899C874.071 130.899 873.446 130.899 872.802 130.899C872.802 131.355 872.802 131.81 872.802 132.279C872.177 132.279 871.551 132.279 870.907 132.279C870.595 132.963 870.282 133.646 869.96 134.35C869.335 134.35 868.71 134.35 868.065 134.35C867.87 134.82 867.675 135.29 867.473 135.774C865.765 138.434 863.423 140.616 860.487 142.633C859.862 142.633 859.237 142.633 858.593 142.633C858.593 143.089 858.593 143.544 858.593 144.013C857.29 145.135 857.29 145.135 855.751 146.084C855.126 146.084 854.501 146.084 853.856 146.084C853.856 146.54 853.856 146.995 853.856 147.465C853.231 147.465 852.606 147.465 851.962 147.465C851.669 147.892 851.376 148.319 851.074 148.759C850.423 149.708 849.771 150.657 849.12 151.606C848.495 151.606 847.87 151.606 847.226 151.606C846.972 152.047 846.718 152.489 846.456 152.943C845.331 154.367 845.331 154.367 842.489 155.057C841.795 156.448 841.795 156.448 841.542 157.818C840.292 158.046 839.041 158.274 837.753 158.508C837.694 158.893 837.636 159.277 837.575 159.673C836.507 161.889 834.342 163.124 832.069 164.72C830.819 165.621 829.571 166.522 828.325 167.425C827.66 167.906 826.996 168.387 826.312 168.882C825.633 169.374 824.954 169.865 824.254 170.372C823.561 170.871 822.867 171.371 822.153 171.886C821.164 172.603 821.164 172.603 820.155 173.335C819.555 173.768 818.955 174.202 818.337 174.648C816.829 175.726 816.829 175.726 815.966 177.145C815.341 177.145 814.715 177.145 814.071 177.145C813.759 177.828 813.446 178.511 813.124 179.215C812.499 179.215 811.874 179.215 811.229 179.215C811.229 179.671 811.229 180.127 811.229 180.596C810.604 180.596 809.979 180.596 809.335 180.596C808.834 184.758 809.337 186.733 813.035 189.952C814.071 190.949 814.071 190.949 814.071 192.33C814.696 192.33 815.322 192.33 815.966 192.33C817.261 193.416 817.261 193.416 818.689 194.875C820.376 196.577 822.062 198.216 823.899 199.836C825.438 201.303 825.438 201.303 825.438 202.683C826.064 202.683 826.689 202.683 827.333 202.683C828.761 203.667 828.761 203.667 830.293 204.97C830.804 205.394 831.314 205.819 831.84 206.256C833.017 207.515 833.017 207.515 833.017 209.586C833.642 209.586 834.267 209.586 834.911 209.586C834.911 210.041 834.911 210.497 834.911 210.966C835.536 210.966 836.162 210.966 836.806 210.966C839.647 213.355 839.647 213.355 839.647 215.108C840.273 215.108 840.898 215.108 841.542 215.108C841.62 215.535 841.698 215.962 841.779 216.402C842.287 217.977 842.287 217.977 844.265 218.559C844.93 218.787 845.594 219.014 846.278 219.249C849.12 221.615 849.12 221.615 849.12 223.39C849.745 223.39 850.371 223.39 851.015 223.39C852.443 224.55 852.443 224.55 853.975 226.065C854.485 226.562 854.996 227.058 855.522 227.57C856.698 228.912 856.698 228.912 856.698 230.293C857.323 230.293 857.949 230.293 858.593 230.293C858.593 230.748 858.593 231.204 858.593 231.673C859.531 231.901 860.468 232.129 861.435 232.363C862.559 234.132 862.559 234.132 863.329 235.815C863.954 235.815 864.579 235.815 865.224 235.815C865.302 236.242 865.38 236.669 865.46 237.109C865.969 238.684 865.969 238.684 867.947 239.266C868.611 239.494 869.276 239.721 869.96 239.956C872.802 242.323 872.802 242.323 872.802 244.097C873.427 244.097 874.052 244.097 874.696 244.097C876.125 245.257 876.125 245.257 877.656 246.772C878.167 247.269 878.677 247.765 879.203 248.277C880.38 249.619 880.38 249.619 880.38 251C881.005 251 881.63 251 882.274 251C882.274 251.455 882.274 251.911 882.274 252.38C882.9 252.38 883.525 252.38 884.169 252.38C885.141 253.52 886.085 254.672 887.011 255.831C887.538 256.216 888.066 256.6 888.609 256.996C889.02 257.295 889.43 257.594 889.853 257.902C889.853 258.358 889.853 258.813 889.853 259.283C890.478 259.283 891.103 259.283 891.747 259.283C894.589 261.672 894.589 261.672 894.589 263.424C895.214 263.424 895.839 263.424 896.483 263.424C896.483 263.88 896.483 264.335 896.483 264.804C897.109 264.804 897.734 264.804 898.378 264.804C900.576 267.006 902.495 269.234 904.062 271.707C904.687 271.707 905.312 271.707 905.956 271.707C905.956 272.162 905.956 272.618 905.956 273.087C906.581 273.087 907.206 273.087 907.851 273.087C910.692 275.477 910.692 275.477 910.692 277.229C911.318 277.229 911.943 277.229 912.587 277.229C912.9 278.14 913.212 279.051 913.534 279.99C914.159 279.99 914.785 279.99 915.429 279.99C915.429 280.445 915.429 280.901 915.429 281.37C916.054 281.37 916.679 281.37 917.323 281.37C919.603 287.233 919.603 287.233 918.271 289.653C912.666 292.375 905.278 291.819 898.733 291.782C897.854 291.78 896.975 291.778 896.069 291.776C893.185 291.767 890.302 291.753 887.418 291.737C885.934 291.73 885.934 291.73 884.42 291.723C879.193 291.697 873.966 291.666 868.738 291.632C863.345 291.598 857.951 291.58 852.558 291.566C848.402 291.552 844.246 291.526 840.09 291.496C838.101 291.484 836.112 291.477 834.124 291.474C831.344 291.469 828.565 291.447 825.786 291.421C824.968 291.424 824.15 291.426 823.307 291.428C818.241 291.358 815.2 290.787 811.229 288.272C810.761 287.247 810.761 287.247 810.282 286.202C809.344 285.974 808.407 285.746 807.44 285.512C803.651 282.435 803.651 282.435 803.651 280.68C803.026 280.68 802.401 280.68 801.757 280.68C800.329 279.696 800.329 279.696 798.797 278.393C798.031 277.757 798.031 277.757 797.25 277.107C796.073 275.848 796.073 275.848 796.073 273.778C795.448 273.778 794.823 273.778 794.179 273.778C794.179 273.322 794.179 272.866 794.179 272.397C793.241 272.169 792.303 271.941 791.337 271.707C790.212 269.938 790.212 269.938 789.442 268.256C788.817 268.256 788.192 268.256 787.548 268.256C787.45 267.814 787.353 267.373 787.252 266.918C787.037 266.448 786.822 265.979 786.601 265.495C785.663 265.267 784.725 265.039 783.759 264.804C782.634 263.036 782.634 263.036 781.864 261.353C781.239 261.353 780.614 261.353 779.97 261.353C779.97 260.898 779.97 260.442 779.97 259.973C779.345 259.973 778.719 259.973 778.075 259.973C776.647 258.813 776.647 258.813 775.115 257.298C774.605 256.802 774.094 256.305 773.568 255.794C772.392 254.451 772.392 254.451 772.392 253.07C771.766 253.07 771.141 253.07 770.497 253.07C770.497 252.615 770.497 252.159 770.497 251.69C769.872 251.69 769.247 251.69 768.603 251.69C765.761 249.301 765.761 249.301 765.761 247.549C765.136 247.549 764.51 247.549 763.866 247.549C762.438 246.54 762.438 246.54 760.906 245.219C760.396 244.787 759.885 244.354 759.359 243.909C758.183 242.717 758.183 242.717 758.183 241.337C757.557 241.337 756.932 241.337 756.288 241.337C755.323 240.194 754.376 239.043 753.446 237.885C752.821 237.658 752.196 237.43 751.552 237.195C751.552 236.74 751.552 236.284 751.552 235.815C750.927 235.815 750.301 235.815 749.657 235.815C745.77 232.772 741.861 228.78 740.185 224.771C740.506 223.358 740.506 223.358 741.132 222.01C741.444 221.327 741.757 220.643 742.079 219.939C744.786 218.46 747.463 217.7 750.664 217.006C755.668 215.87 759.895 213.947 764.336 211.95C766.708 210.966 766.708 210.966 768.603 210.966C768.603 210.511 768.603 210.055 768.603 209.586C769.228 209.586 769.853 209.586 770.497 209.586C770.497 209.13 770.497 208.675 770.497 208.205C771.8 207.084 771.8 207.084 773.339 206.135C773.964 206.135 774.589 206.135 775.233 206.135C775.526 205.594 775.82 205.053 776.121 204.495C777.128 202.683 777.128 202.683 778.075 201.303C778.7 201.303 779.326 201.303 779.97 201.303C779.97 200.62 779.97 199.936 779.97 199.232C780.595 199.232 781.22 199.232 781.864 199.232C781.962 198.634 782.06 198.036 782.16 197.42C782.812 195.091 782.812 195.091 784.199 193.274C786.026 190.354 786.451 187.736 786.837 184.565C786.955 183.668 786.955 183.668 787.076 182.753C787.771 176.7 787.341 170.76 786.601 164.72C785.975 164.72 785.35 164.72 784.706 164.72C784.706 163.582 784.706 162.443 784.706 161.269C784.081 161.269 783.456 161.269 782.812 161.269C782.343 158.878 782.343 158.878 781.864 156.438C781.239 156.438 780.614 156.438 779.97 156.438C777.128 153.411 777.128 153.411 777.128 151.606C776.522 151.421 775.917 151.236 775.293 151.045C773.339 150.226 773.339 150.226 772.392 148.155C771.148 147.667 769.879 147.215 768.603 146.774C767.526 146.224 766.462 145.662 765.406 145.092C763.199 143.906 761.374 143.126 758.834 142.288C756.288 141.253 756.288 141.253 754.867 139.57C754.313 137.502 754.711 136.764 756.288 135.04C756.913 135.04 757.538 135.04 758.183 135.04C758.241 134.656 758.3 134.272 758.36 133.876C759.446 131.623 761.517 130.457 763.866 128.828C764.491 128.145 765.117 127.462 765.761 126.758C766.386 126.758 767.011 126.758 767.655 126.758C767.968 126.074 768.28 125.391 768.603 124.687C769.228 124.687 769.853 124.687 770.497 124.687C770.497 124.231 770.497 123.776 770.497 123.306C771.122 123.306 771.747 123.306 772.392 123.306C772.587 122.837 772.782 122.367 772.984 121.883C775.627 117.769 780.346 114.749 784.706 111.572C785.562 110.815 786.411 110.053 787.252 109.286C787.975 108.674 788.698 108.062 789.442 107.431C790.068 107.431 790.693 107.431 791.337 107.431C791.591 106.99 791.845 106.548 792.107 106.094C793.231 104.67 793.231 104.67 796.073 103.98C796.768 102.589 796.768 102.589 797.021 101.219C797.646 101.219 798.271 101.219 798.915 101.219C799.169 100.82 799.423 100.422 799.685 100.011C800.837 98.4197 802.044 97.0633 803.651 95.6971C804.277 95.6971 804.902 95.6971 805.546 95.6971C805.858 95.0137 806.171 94.3304 806.493 93.6264C807.118 93.6264 807.744 93.6264 808.388 93.6264C808.388 93.1708 808.388 92.7152 808.388 92.2459C814.829 87.3485 827.092 88.6034 835.622 88.6356Z" fill="#F9F9FD"/>
<path d="M664.716 0.23323C665.772 0.224602 665.772 0.224602 666.85 0.215836C669.18 0.199202 671.509 0.193128 673.839 0.188572C675.459 0.18236 677.079 0.176079 678.699 0.16966C682.096 0.158271 685.493 0.153025 688.89 0.151023C693.24 0.147296 697.59 0.121274 701.94 0.0897305C705.287 0.0692305 708.633 0.0641918 711.979 0.0635016C713.583 0.0606026 715.187 0.0520437 716.79 0.0376178C719.035 0.0190505 721.279 0.0223636 723.524 0.0309915C724.515 0.0156683 724.515 0.0156683 725.526 0C729.128 0.0394124 730.596 0.374935 733.411 2.06677C736.942 5.23702 737.62 7.1324 737.596 11.1018C737.601 11.6292 737.605 12.1566 737.609 12.7C737.621 14.4725 737.62 16.2449 737.618 18.0174C737.624 19.286 737.63 20.5546 737.638 21.8231C737.654 25.2728 737.659 28.7224 737.66 32.1721C737.662 35.0489 737.669 37.9255 737.675 40.8023C737.691 47.5867 737.695 54.371 737.694 61.1553C737.693 68.1622 737.713 75.169 737.743 82.1759C737.768 88.1855 737.778 94.195 737.777 100.205C737.776 103.797 737.782 107.389 737.802 110.981C737.82 114.357 737.82 117.734 737.806 121.11C737.804 122.352 737.809 123.593 737.82 124.834C737.835 126.525 737.826 128.215 737.811 129.905C737.821 130.4 737.831 130.895 737.841 131.405C737.798 133.639 737.737 134.747 735.544 136.378C733.362 137.182 731.888 137.401 729.454 137.464C728.697 137.489 727.94 137.513 727.16 137.538C726.378 137.554 725.597 137.57 724.792 137.586C723.996 137.609 723.2 137.633 722.379 137.657C720.421 137.714 718.462 137.759 716.503 137.801C716.503 138.257 716.503 138.712 716.503 139.182C714.94 139.182 713.377 139.182 711.767 139.182C711.767 139.637 711.767 140.093 711.767 140.562C711.261 140.69 710.756 140.817 710.235 140.948C702.627 143.106 696.717 146.776 691.715 151.458C691.143 151.962 690.57 152.467 689.98 152.987C689.355 152.987 688.729 152.987 688.085 152.987C688.085 153.67 688.085 154.353 688.085 155.057C687.46 155.057 686.835 155.057 686.191 155.057C685.878 156.196 685.566 157.335 685.243 158.508C684.618 158.508 683.993 158.508 683.349 158.508C683.223 159.014 683.097 159.52 682.967 160.042C682.453 161.784 681.754 163.357 680.94 165.033C679.091 169.458 679.178 173.761 679.264 178.353C679.261 179.176 679.258 179.999 679.255 180.847C679.288 184.813 679.686 187.876 681.454 191.64C681.454 192.551 681.454 193.462 681.454 194.401C682.08 194.401 682.705 194.401 683.349 194.401C686.191 198.973 686.191 198.973 686.191 201.303C686.816 201.303 687.441 201.303 688.085 201.303C690.261 203.071 690.927 203.705 690.927 206.135C691.552 206.135 692.177 206.135 692.822 206.135C692.822 206.59 692.822 207.046 692.822 207.515C693.759 207.743 694.697 207.971 695.663 208.205C695.663 208.661 695.663 209.116 695.663 209.586C696.289 209.586 696.914 209.586 697.558 209.586C697.558 210.041 697.558 210.497 697.558 210.966C698.183 210.966 698.808 210.966 699.452 210.966C700.792 212.919 700.702 214.33 700.4 216.488C698.119 218.24 696.762 218.547 693.44 218.815C691.091 218.845 688.743 218.874 686.394 218.901C683.266 219.018 683.266 219.018 681.636 220.654C681.263 221.101 680.891 221.549 680.507 222.01C679.882 222.01 679.257 222.01 678.613 222.01C678.613 225.427 678.613 228.843 678.613 232.363C682.456 232.924 685.607 233.155 689.48 233.199C690.645 233.219 691.809 233.238 693.008 233.259C695.453 233.295 697.898 233.325 700.342 233.35C701.505 233.372 702.668 233.393 703.867 233.415C704.928 233.429 705.989 233.442 707.083 233.456C710.146 233.772 711.474 234.245 713.661 235.815C714.272 237.454 714.272 237.454 714.431 239.266C714.496 239.864 714.561 240.462 714.627 241.078C714.609 242.717 714.609 242.717 713.661 244.788C713.036 244.788 712.411 244.788 711.767 244.788C711.767 245.243 711.767 245.699 711.767 246.168C711.142 246.168 710.516 246.168 709.872 246.168C709.872 246.624 709.872 247.079 709.872 247.549C705.183 247.776 700.494 248.004 695.663 248.239C693.545 251.691 693.545 251.691 693.769 255.141C695.148 256.462 696.618 257.649 698.209 258.835C699.452 259.973 699.452 259.973 699.452 262.044C698.827 262.044 698.202 262.044 697.558 262.044C697.558 262.499 697.558 262.955 697.558 263.424C696.933 263.424 696.308 263.424 695.663 263.424C695.663 263.88 695.663 264.335 695.663 264.804C694.66 264.822 693.656 264.84 692.622 264.858C691.307 264.897 689.992 264.937 688.677 264.977C688.015 264.987 687.354 264.997 686.672 265.007C684.507 265.053 684.507 265.053 681.454 265.495C679.508 267.235 679.317 268.816 679.382 271.017C679.388 271.472 679.394 271.928 679.401 272.397C679.567 273.839 680.006 275.141 680.507 276.538C681.664 276.53 682.82 276.522 684.011 276.514C691.192 276.478 698.377 276.454 705.55 276.711C706.487 276.743 707.424 276.775 708.389 276.808C712.096 277.45 713.777 279.095 715.852 281.327C716.967 283.764 715.775 285.674 714.786 288.057C713.419 289.997 712.623 290.259 709.872 291.033C707.507 291.213 707.507 291.213 704.822 291.223C703.813 291.23 702.805 291.236 701.766 291.243C700.681 291.242 699.597 291.242 698.479 291.241C697.36 291.244 696.242 291.247 695.089 291.25C692.723 291.254 690.358 291.254 687.992 291.251C684.373 291.249 680.754 291.265 677.134 291.283C674.836 291.284 672.537 291.285 670.239 291.284C669.156 291.29 668.074 291.297 666.958 291.303C665.947 291.299 664.935 291.295 663.893 291.29C662.563 291.291 662.563 291.291 661.206 291.292C658.133 290.972 656.426 290.357 653.984 288.963C652.015 286.189 651.851 283.827 651.848 280.733C651.845 280.258 651.842 279.783 651.839 279.294C651.831 277.7 651.837 276.106 651.842 274.512C651.839 273.359 651.836 272.206 651.831 271.052C651.821 267.881 651.824 264.71 651.828 261.538C651.83 258.119 651.821 254.7 651.814 251.28C651.802 244.581 651.801 237.881 651.803 231.182C651.804 225.737 651.803 220.293 651.799 214.849C651.798 214.075 651.798 213.301 651.797 212.503C651.796 210.931 651.795 209.358 651.794 207.785C651.783 193.03 651.785 178.275 651.791 163.52C651.796 150.015 651.785 136.509 651.767 123.003C651.749 109.143 651.741 95.2829 651.745 81.4227C651.747 73.6383 651.744 65.8539 651.731 58.0696C651.72 51.443 651.718 44.8165 651.73 38.19C651.735 34.8078 651.736 31.4258 651.725 28.0437C651.715 24.9489 651.718 21.8542 651.731 18.7593C651.733 17.6385 651.731 16.5178 651.724 15.397C651.714 13.8752 651.722 12.354 651.734 10.8323C651.734 9.56368 651.734 9.56368 651.734 8.26942C652.133 5.68139 653.054 4.03166 654.931 1.82519C658.33 0.174077 660.789 0.235922 664.716 0.23323Z" fill="#FAFAFE"/>
<path d="M975.107 144.013C975.107 144.469 975.107 144.925 975.107 145.394C975.752 145.437 976.396 145.479 977.061 145.523C980.747 146.266 983.665 147.642 986.474 149.535C986.474 149.991 986.474 150.446 986.474 150.916C987.021 151.087 987.568 151.257 988.132 151.434C990.575 152.423 992.216 153.528 994.052 155.057C994.052 155.513 994.052 155.968 994.052 156.438C994.678 156.438 995.303 156.438 995.947 156.438C995.947 156.893 995.947 157.349 995.947 157.818C996.572 157.818 997.197 157.818 997.841 157.818C998.154 158.957 998.467 160.096 998.789 161.269C999.414 161.269 1000.04 161.269 1000.68 161.269C1000.68 161.953 1000.68 162.636 1000.68 163.34C1001.31 163.34 1001.93 163.34 1002.58 163.34C1002.91 163.922 1003.24 164.504 1003.58 165.103C1004.01 165.86 1004.44 166.616 1004.89 167.395C1005.32 168.148 1005.74 168.901 1006.19 169.676C1006.84 170.798 1007.51 171.914 1008.26 173.003C1009.51 173.003 1010.76 173.003 1012.05 173.003C1012.15 172.548 1012.25 172.092 1012.35 171.623C1014.09 166.068 1017.69 161.357 1021.52 156.438C1022.15 156.438 1022.77 156.438 1023.42 156.438C1023.67 155.882 1023.93 155.327 1024.19 154.755C1024.74 153.88 1024.74 153.88 1025.31 152.987C1026.25 152.759 1027.19 152.531 1028.15 152.296C1028.47 151.841 1028.78 151.385 1029.1 150.916C1030.05 149.535 1030.05 149.535 1032.89 148.845C1032.89 148.39 1032.89 147.934 1032.89 147.465C1035.64 146.055 1037.06 145.394 1040.47 145.394C1040.47 144.938 1040.47 144.483 1040.47 144.013C1042.04 143.461 1043.62 142.916 1045.2 142.374C1046.52 141.918 1046.52 141.918 1047.87 141.452C1056 139.055 1063.55 138.891 1072.26 138.88C1072.89 138.879 1073.53 138.877 1074.18 138.876C1086.85 138.887 1096.97 140.291 1107.72 145.394C1108.35 145.622 1108.97 145.85 1109.62 146.084C1109.62 146.54 1109.62 146.995 1109.62 147.465C1110.34 147.65 1111.06 147.835 1111.81 148.025C1114.25 148.812 1115.56 149.407 1117.2 150.916C1117.2 151.371 1117.2 151.827 1117.2 152.296C1117.8 152.481 1118.41 152.666 1119.03 152.857C1120.99 153.677 1120.99 153.677 1121.93 155.747C1122.56 155.747 1123.18 155.747 1123.83 155.747C1126.67 158.774 1126.67 158.774 1126.67 160.579C1127.29 160.579 1127.92 160.579 1128.56 160.579C1128.56 161.262 1128.56 161.946 1128.56 162.65C1129.19 162.65 1129.81 162.65 1130.46 162.65C1130.77 164.016 1131.08 165.383 1131.41 166.791C1132.03 166.791 1132.66 166.791 1133.3 166.791C1136.19 173.37 1136.19 173.37 1136.73 176.498C1136.79 178.446 1136.79 178.446 1138.04 179.215C1138.16 181.05 1138.22 182.859 1138.21 184.694C1138.21 185.227 1138.21 185.76 1138.21 186.309C1138.16 190.3 1137.51 193.983 1136.14 197.852C1135.82 199.001 1135.5 200.151 1135.19 201.303C1134.57 201.303 1133.94 201.303 1133.3 201.303C1133.3 202.442 1133.3 203.581 1133.3 204.754C1132.68 204.754 1132.05 204.754 1131.41 204.754C1131.32 205.364 1131.23 205.975 1131.13 206.604C1130.4 209.092 1129.33 210.406 1127.26 212.433C1126.69 213.004 1126.11 213.575 1125.52 214.164C1124.96 214.703 1124.4 215.242 1123.83 215.798C1123.08 216.585 1123.08 216.585 1122.31 217.389C1121.87 217.775 1121.44 218.161 1120.99 218.559C1120.36 218.559 1119.74 218.559 1119.09 218.559C1119.09 219.014 1119.09 219.47 1119.09 219.939C1117.74 220.98 1117.74 220.98 1115.95 222.096C1115.37 222.468 1114.79 222.84 1114.19 223.223C1112.46 224.081 1112.46 224.081 1109.62 224.081C1109.62 224.536 1109.62 224.992 1109.62 225.461C1106.87 226.87 1105.45 227.532 1102.04 227.532C1102.04 227.987 1102.04 228.443 1102.04 228.912C1095.74 230.334 1089.44 231.747 1083.1 233.054C1082.16 233.281 1081.22 233.509 1080.25 233.744C1063.29 234.802 1048.5 231.262 1034.45 224.366C1033.93 224.044 1033.42 223.722 1032.89 223.39C1032.89 222.935 1032.89 222.479 1032.89 222.01C1032.27 222.01 1031.64 222.01 1031 222.01C1031 221.554 1031 221.099 1031 220.629C1030.06 220.402 1029.12 220.174 1028.15 219.939C1028.15 219.484 1028.15 219.028 1028.15 218.559C1027.53 218.559 1026.9 218.559 1026.26 218.559C1026.26 218.103 1026.26 217.648 1026.26 217.178C1025.32 216.951 1024.38 216.723 1023.42 216.488C1017.5 211.206 1014.3 204.859 1011.1 198.542C1010.17 198.542 1009.23 198.542 1008.26 198.542C1007.89 199.325 1007.52 200.108 1007.14 200.915C1005.44 204.229 1003.13 207.231 1000.68 210.276C1000.06 210.276 999.433 210.276 998.789 210.276C998.476 211.415 998.163 212.554 997.841 213.727C997.216 213.727 996.591 213.727 995.947 213.727C995.947 214.183 995.947 214.638 995.947 215.108C995.322 215.108 994.696 215.108 994.052 215.108C993.913 215.714 993.913 215.714 993.771 216.332C992.569 219.106 989.476 220.872 986.474 222.7C983.692 223.692 983.692 223.692 981.738 224.081C981.738 224.536 981.738 224.992 981.738 225.461C980.8 225.461 979.862 225.461 978.896 225.461C978.896 225.917 978.896 226.372 978.896 226.842C978.256 227.025 977.616 227.208 976.957 227.397C975.69 227.763 975.69 227.763 974.397 228.136C973.144 228.496 973.144 228.496 971.866 228.864C969.5 229.546 969.5 229.546 967.632 230.298C960.743 232.66 954.194 232.573 946.689 232.536C945.6 232.541 944.511 232.547 943.388 232.552C937.793 232.543 933.011 232.382 927.744 230.983C927.093 230.829 926.442 230.675 925.771 230.517C911.642 226.728 911.642 226.728 906.904 222.7C906.279 222.472 905.653 222.245 905.009 222.01C905.009 221.554 905.009 221.099 905.009 220.629C904.404 220.444 903.798 220.259 903.174 220.069C901.22 219.249 901.22 219.249 900.273 217.178C899.648 216.965 899.023 216.751 898.378 216.531C896.484 215.798 896.484 215.798 895.773 214.331C895.695 213.904 895.617 213.477 895.537 213.037C894.911 213.037 894.286 213.037 893.642 213.037C886.204 202.962 886.204 202.962 886.064 197.852C885.439 197.852 884.814 197.852 884.169 197.852C884.169 197.396 884.169 196.941 884.169 196.471C883.434 196.475 882.699 196.479 881.942 196.482C878.58 196.497 875.217 196.506 871.855 196.514C870.699 196.52 869.542 196.526 868.351 196.532C862.477 196.543 856.819 196.452 851.015 195.781C851.015 195.326 851.015 194.87 851.015 194.401C850.077 194.401 849.14 194.401 848.173 194.401C848.173 193.945 848.173 193.489 848.173 193.02C847.568 192.835 846.962 192.65 846.338 192.459C844.384 191.64 844.384 191.64 843.437 189.569C842.971 185.708 842.732 182.371 845.036 178.827C852.54 173.063 864.126 173.482 874.401 173.262C875.438 173.235 876.475 173.209 877.544 173.181C880.068 173.117 882.592 173.058 885.117 173.003C885.311 172.579 885.505 172.154 885.705 171.717C886.772 169.385 887.839 167.053 888.906 164.721C889.531 164.721 890.156 164.721 890.8 164.721C890.878 164.108 890.957 163.496 891.037 162.866C891.842 160.277 893.145 159.088 895.537 157.128C895.849 156.672 896.162 156.217 896.484 155.747C897.109 155.747 897.734 155.747 898.378 155.747C898.378 155.292 898.378 154.836 898.378 154.367C899.004 154.367 899.629 154.367 900.273 154.367C900.742 153.342 900.742 153.342 901.22 152.296C901.845 152.296 902.471 152.296 903.115 152.296C903.115 151.841 903.115 151.385 903.115 150.916C903.74 150.916 904.365 150.916 905.009 150.916C905.478 149.891 905.478 149.891 905.957 148.845C908.384 148.025 908.384 148.025 910.693 147.465C910.693 147.009 910.693 146.554 910.693 146.084C916.021 144.013 916.021 144.013 919.218 144.013C919.218 143.558 919.218 143.102 919.218 142.633C920.312 142.32 921.406 142.007 922.534 141.684C923.149 141.508 923.765 141.332 924.399 141.15C940.947 137.094 959.651 138.033 975.107 144.013ZM926.796 170.242C926.796 170.698 926.796 171.153 926.796 171.623C925.859 171.851 924.921 172.078 923.955 172.313C925.329 174.953 927.158 175.896 930.585 177.145C931.211 177.145 931.836 177.145 932.48 177.145C932.773 177.814 933.066 178.483 933.368 179.172C934.086 181.176 934.086 181.176 935.322 181.976C935.543 183.253 935.713 184.534 935.855 185.816C935.934 186.514 936.013 187.213 936.095 187.932C936.153 188.472 936.21 189.012 936.269 189.569C935.644 189.569 935.019 189.569 934.375 189.569C934.375 190.48 934.375 191.391 934.375 192.33C933.749 192.33 933.124 192.33 932.48 192.33C930.901 193.25 930.901 193.25 929.638 194.401C929.638 194.856 929.638 195.312 929.638 195.781C928.388 196.237 927.137 196.692 925.849 197.162C925.445 199.906 925.445 199.906 927.625 201.475C929.447 202.83 929.447 202.83 931.533 202.683C931.533 203.139 931.533 203.595 931.533 204.064C933.408 204.292 935.284 204.519 937.216 204.754C937.216 205.21 937.216 205.665 937.216 206.135C946.922 207.042 954.637 206.975 962.793 202.683C965.438 200.987 965.438 200.987 967.529 199.232C967.529 198.777 967.529 198.321 967.529 197.852C968.135 197.709 968.74 197.567 969.364 197.42C971.589 196.556 971.589 196.556 972.147 194.53C972.474 192.388 972.474 192.388 971.377 190.777C969.433 187.11 969.781 182.985 971.377 179.259C972.571 177.146 972.571 177.146 971.318 175.074C970.693 175.074 970.068 175.074 969.423 175.074C969.189 174.69 968.955 174.305 968.713 173.909C965.715 169.868 961.838 167.338 956.162 165.411C953.036 164.911 950.058 164.852 946.867 164.893C946.038 164.897 945.209 164.901 944.355 164.906C937.211 165.101 931.948 166.437 926.796 170.242ZM1052.78 172.313C1054.17 174.982 1056.07 175.771 1059.41 177.145C1059.73 177.6 1060.04 178.056 1060.36 178.525C1060.99 178.525 1061.61 178.525 1062.26 178.525C1063.7 183.305 1064.71 188.241 1061.19 192.632C1058.84 195.036 1056.22 196.338 1052.78 197.852C1052.78 198.307 1052.78 198.763 1052.78 199.232C1053.41 199.232 1054.03 199.232 1054.68 199.232C1054.99 199.916 1055.3 200.599 1055.62 201.303C1056.25 201.303 1056.87 201.303 1057.52 201.303C1057.52 201.758 1057.52 202.214 1057.52 202.683C1058.46 202.683 1059.39 202.683 1060.36 202.683C1060.36 203.139 1060.36 203.595 1060.36 204.064C1066.97 206.752 1074.46 207.051 1081.79 205.665C1084.05 205.072 1084.05 205.072 1086.88 204.064C1086.88 203.608 1086.88 203.153 1086.88 202.683C1087.82 202.683 1088.76 202.683 1089.73 202.683C1089.73 202.228 1089.73 201.772 1089.73 201.303C1090.27 201.146 1090.82 200.99 1091.38 200.828C1096.04 198.851 1098.11 195.78 1099.64 192.144C1101.4 185.64 1100.97 179.945 1096.08 174.373C1092.95 171.076 1089.73 168.838 1084.99 166.791C1083.74 166.791 1082.49 166.791 1081.2 166.791C1081.2 166.336 1081.2 165.88 1081.2 165.411C1069.04 164.817 1061.6 165.653 1052.78 172.313Z" fill="#268785"/>
<path d="M238.134 98.3179C238.768 98.316 239.401 98.314 240.054 98.312C243.403 98.3017 246.752 98.2953 250.101 98.2923C253.544 98.2885 256.986 98.2719 260.429 98.2523C263.093 98.2394 265.757 98.2358 268.421 98.2348C270.303 98.2317 272.185 98.2189 274.067 98.2058C285.093 98.2256 285.093 98.2256 290.234 100.529C298.242 107.011 295.236 120.767 295.215 128.855C295.218 130.528 295.221 132.201 295.225 133.875C295.233 137.928 295.232 141.982 295.226 146.035C295.222 149.33 295.221 152.625 295.223 155.92C295.224 156.39 295.224 156.861 295.224 157.346C295.225 158.302 295.225 159.258 295.226 160.214C295.232 169.156 295.225 178.098 295.215 187.04C295.207 194.707 295.208 202.373 295.217 210.039C295.227 218.957 295.231 227.876 295.225 236.794C295.225 237.745 295.224 238.697 295.223 239.648C295.223 240.35 295.223 240.35 295.223 241.066C295.221 244.357 295.224 247.649 295.228 250.94C295.234 255.37 295.23 259.799 295.219 264.228C295.216 265.853 295.217 267.479 295.221 269.104C295.226 271.322 295.22 273.54 295.211 275.758C295.215 276.401 295.219 277.044 295.223 277.707C295.194 281.252 294.858 284.262 293.075 287.582C288.376 289.768 283.753 289.966 278.256 290.198C276.007 290.245 276.007 290.245 274.13 291.033C272.41 291.11 270.685 291.143 268.962 291.156C267.88 291.165 266.799 291.173 265.685 291.183C263.923 291.19 263.923 291.19 262.126 291.198C260.923 291.204 259.72 291.209 258.48 291.215C255.929 291.224 253.377 291.232 250.826 291.237C247.566 291.245 244.307 291.269 241.048 291.296C237.93 291.318 234.813 291.322 231.696 291.327C230.529 291.339 229.363 291.352 228.161 291.364C217.867 291.345 217.867 291.345 213.505 288.273C211.809 286.24 211.373 284.735 211.369 282.37C211.364 281.739 211.358 281.109 211.353 280.459C211.356 279.769 211.36 279.079 211.364 278.368C211.36 277.633 211.356 276.898 211.353 276.141C211.343 273.669 211.347 271.198 211.35 268.727C211.346 266.958 211.341 265.19 211.336 263.421C211.324 259.111 211.322 254.8 211.324 250.49C211.326 246.987 211.324 243.483 211.32 239.98C211.319 239.232 211.319 239.232 211.318 238.47C211.317 237.457 211.316 236.445 211.315 235.432C211.305 225.934 211.307 216.436 211.313 206.937C211.317 198.248 211.307 189.558 211.289 180.869C211.27 171.947 211.263 163.026 211.266 154.104C211.268 149.095 211.266 144.086 211.252 139.077C211.24 134.367 211.242 129.657 211.254 124.947C211.257 123.217 211.254 121.486 211.246 119.756C211.236 117.397 211.244 115.038 211.256 112.679C211.249 111.992 211.242 111.305 211.235 110.597C211.274 106.97 211.575 104.328 214.452 101.219C216.524 100.615 216.524 100.615 218.241 100.529C218.241 100.073 218.241 99.6177 218.241 99.1483C224.842 98.2555 231.438 98.3338 238.134 98.3179Z" fill="#FAF9FE"/>
<path d="M1072.56 140.26C1073.64 140.265 1074.73 140.271 1075.85 140.276C1083.64 140.387 1090.18 140.883 1097.3 143.323C1098.19 143.616 1099.07 143.909 1099.98 144.21C1109.19 147.572 1117.72 152.423 1123.83 158.508C1124.36 159.02 1124.89 159.531 1125.44 160.059C1134.93 169.936 1138.02 180.884 1135.65 192.696C1132.16 205.131 1123.19 216.647 1108.85 224.08C1095.55 230.061 1079.31 234.017 1063.64 231.913C1046.94 228.979 1031.83 222.973 1022.44 212.209C1018.28 207.133 1015.09 201.949 1012.05 196.471C1010.72 196.493 1010.72 196.493 1009.37 196.515C1006.07 196.562 1002.77 196.597 999.463 196.623C998.038 196.637 996.613 196.655 995.189 196.679C993.131 196.713 991.074 196.729 989.016 196.741C987.163 196.762 987.163 196.762 985.273 196.785C980.87 196.394 978.742 195.538 975.106 193.71C971.72 189.81 971.563 185.82 972.265 181.286C973.508 178.784 973.508 178.784 975.106 177.145C976.513 176.803 976.513 176.803 977.948 176.454C977.948 175.999 977.948 175.543 977.948 175.074C982.751 173.907 987.781 174.256 992.809 174.254C994.456 174.241 994.456 174.241 996.137 174.229C1002.1 174.221 1007.29 174.468 1013 175.764C1013.08 175.346 1013.16 174.928 1013.25 174.497C1015.35 165.358 1022.5 157.09 1031.94 150.916C1032.39 150.594 1032.84 150.271 1033.3 149.94C1044.11 142.555 1058.16 140.163 1072.56 140.26ZM1052.78 172.313C1054.17 174.982 1056.07 175.771 1059.41 177.145C1059.73 177.6 1060.04 178.056 1060.36 178.525C1060.99 178.525 1061.61 178.525 1062.25 178.525C1063.7 183.304 1064.71 188.241 1061.19 192.632C1058.83 195.035 1056.22 196.337 1052.78 197.852C1052.78 198.307 1052.78 198.763 1052.78 199.232C1053.41 199.232 1054.03 199.232 1054.68 199.232C1054.99 199.915 1055.3 200.599 1055.62 201.303C1056.25 201.303 1056.87 201.303 1057.52 201.303C1057.52 201.758 1057.52 202.214 1057.52 202.683C1058.46 202.683 1059.39 202.683 1060.36 202.683C1060.36 203.139 1060.36 203.594 1060.36 204.064C1066.97 206.752 1074.46 207.051 1081.78 205.665C1084.05 205.072 1084.05 205.072 1086.88 204.064C1086.88 203.608 1086.88 203.153 1086.88 202.683C1087.82 202.683 1088.76 202.683 1089.73 202.683C1089.73 202.228 1089.73 201.772 1089.73 201.303C1090.27 201.146 1090.82 200.99 1091.38 200.828C1096.04 198.851 1098.11 195.78 1099.63 192.144C1101.4 185.64 1100.97 179.944 1096.08 174.373C1092.95 171.076 1089.73 168.838 1084.99 166.791C1083.74 166.791 1082.49 166.791 1081.2 166.791C1081.2 166.335 1081.2 165.88 1081.2 165.411C1069.04 164.817 1061.6 165.653 1052.78 172.313Z" fill="#F7F4FB"/>
<path d="M745.868 162.65C746.494 162.878 747.119 163.105 747.763 163.34C747.763 163.796 747.763 164.251 747.763 164.72C748.671 164.998 748.671 164.998 749.598 165.281C751.552 166.101 751.552 166.101 752.499 168.172C753.124 168.172 753.75 168.172 754.394 168.172C754.394 168.855 754.394 169.538 754.394 170.242C755.019 170.242 755.644 170.242 756.288 170.242C757.395 173.116 757.375 175.906 757.354 178.87C757.359 179.656 757.359 179.656 757.365 180.458C757.359 182.922 757.201 185.129 756.288 187.498C755.663 187.498 755.038 187.498 754.394 187.498C754.394 188.181 754.394 188.865 754.394 189.569C753.769 189.569 753.143 189.569 752.499 189.569C752.187 190.48 751.874 191.391 751.552 192.33C749.676 192.671 749.676 192.671 747.763 193.02C747.763 193.476 747.763 193.931 747.763 194.401C742.592 196.292 738.649 196.761 732.903 196.644C731.843 196.638 731.843 196.638 730.762 196.633C727.441 196.598 724.435 196.426 721.239 195.781C721.239 195.325 721.239 194.87 721.239 194.401C720.302 194.401 719.364 194.401 718.398 194.401C718.398 193.945 718.398 193.489 718.398 193.02C717.46 192.792 716.522 192.564 715.556 192.33C715.556 191.874 715.556 191.419 715.556 190.949C714.931 190.949 714.305 190.949 713.661 190.949C713.661 190.494 713.661 190.038 713.661 189.569C713.036 189.569 712.411 189.569 711.767 189.569C711.454 188.43 711.142 187.291 710.819 186.118C710.194 186.118 709.569 186.118 708.925 186.118C706.243 181.599 705.829 176.848 708.092 172.205C709.242 170.364 710.445 168.569 711.767 166.791C712.392 166.791 713.017 166.791 713.661 166.791C713.857 166.393 714.052 165.994 714.253 165.583C716.501 162.904 719.958 161.704 723.785 160.406C732.014 159.049 738.507 159.714 745.868 162.65Z" fill="#F9FAFB"/>
</svg>
